HIERARCHY
ROOT Hips
{
	OFFSET 0.00 0.00 0.00
	CHANNELS 6 Xposition Yposition Zposition Xrotation Yrotation Zrotation
	JOINT Spine
	{
		OFFSET 0.00000 1.15266 1.72900
		CHANNELS 3 Xrotation Yrotation Zrotation
		JOINT Spine1
		{
			OFFSET 0.00000 0.40032 2.27031
			CHANNELS 3 Xrotation Yrotation Zrotation
			JOINT Spine2
			{
				OFFSET 0.00000 0.20092 2.29656
				CHANNELS 3 Xrotation Yrotation Zrotation
				JOINT Spine3
				{
					OFFSET 0.00000 0.00000 2.30533
					CHANNELS 3 Xrotation Yrotation Zrotation
					JOINT Neck
					{
						OFFSET 0.00000 -0.86449 6.05149
						CHANNELS 3 Xrotation Yrotation Zrotation
						JOINT Head
						{
							OFFSET 0.00000 -0.55043 3.12167
							CHANNELS 3 Xrotation Yrotation Zrotation
							End Site
							{
								OFFSET 0.00000 0.00000 3.73175
							}
						}
					}
					JOINT RightShoulder
					{
						OFFSET -0.78828 -1.31380 4.25672
						CHANNELS 3 Xrotation Yrotation Zrotation
						JOINT RightArm
						{
							OFFSET -3.91513 0.00000 0.00000
							CHANNELS 3 Xrotation Yrotation Zrotation
							JOINT RightForeArm
							{
								OFFSET -6.91491 0.00000 0.00000
								CHANNELS 3 Xrotation Yrotation Zrotation
								JOINT RightHand
								{
									OFFSET -6.09622 0.00000 0.00000
									CHANNELS 3 Xrotation Yrotation Zrotation
									JOINT RightHandEnd
									{
										OFFSET -1.74995 0.00000 0.00000
										CHANNELS 3 Xrotation Yrotation Zrotation
										End Site
										{
											OFFSET -1.74995 0.00000 0.00000
										}
									}
									JOINT RightHandThumb1
									{
										OFFSET -0.69998 -1.16663 -0.46665
										CHANNELS 3 Yrotation Xrotation Zrotation
										End Site
										{
											OFFSET -1.69032 -0.45292 0.00000
										}
									}
								}
							}
						}
					}
					JOINT LeftShoulder
					{
						OFFSET 0.78828 -1.31380 4.25672
						CHANNELS 3 Xrotation Yrotation Zrotation
						JOINT LeftArm
						{
							OFFSET 3.91513 0.00000 0.00000
							CHANNELS 3 Xrotation Yrotation Zrotation
							JOINT LeftForeArm
							{
								OFFSET 6.91491 0.00000 0.00000
								CHANNELS 3 Xrotation Yrotation Zrotation
								JOINT LeftHand
								{
									OFFSET 6.09622 0.00000 0.00000
									CHANNELS 3 Xrotation Yrotation Zrotation
									JOINT LeftHandEnd
									{
										OFFSET 1.74995 0.00000 0.00000
										CHANNELS 3 Xrotation Yrotation Zrotation
										End Site
										{
											OFFSET 1.74995 0.00000 0.00000
										}
									}
									JOINT LeftHandThumb1
									{
										OFFSET 0.69998 -1.16663 -0.46665
										CHANNELS 3 Yrotation Xrotation Zrotation
										End Site
										{
											OFFSET 1.69032 -0.45292 0.00000
										}
									}
								}
							}
						}
					}
				}
			}
		}
	}
	JOINT RightUpLeg
	{
		OFFSET -2.33857 0.00000 -0.68318
		CHANNELS 3 Xrotation Yrotation Zrotation
		JOINT RightLeg
		{
			OFFSET 0.00000 0.00000 -10.74496
			CHANNELS 3 Xrotation Yrotation Zrotation
			JOINT RightFoot
			{
				OFFSET 0.00000 0.00000 -10.93085
				CHANNELS 3 Xrotation Yrotation Zrotation
				JOINT RightToeBase
				{
					OFFSET 0.00000 -4.08727 -1.48765
					CHANNELS 3 Xrotation Yrotation Zrotation
					End Site
					{
						OFFSET 0.00000 -1.89187 -0.00000
					}
				}
			}
		}
	}
	JOINT LeftUpLeg
	{
		OFFSET 2.33857 0.00000 -0.68318
		CHANNELS 3 Xrotation Yrotation Zrotation
		JOINT LeftLeg
		{
			OFFSET 0.00000 0.00000 -10.74496
			CHANNELS 3 Xrotation Yrotation Zrotation
			JOINT LeftFoot
			{
				OFFSET 0.00000 0.00000 -10.93085
				CHANNELS 3 Xrotation Yrotation Zrotation
				JOINT LeftToeBase
				{
					OFFSET 0.00000 -4.08727 -1.48765
					CHANNELS 3 Xrotation Yrotation Zrotation
					End Site
					{
						OFFSET 0.00000 -1.89187 -0.00000
					}
				}
			}
		}
	}
}
MOTION
Frames: 10
Frame Time:	0.02
 -0.6512 -1.2733 24.9479 -6.1010 3.6553 171.1333 2.5419 -0.9174 -0.3152 0.6916 -1.0767 -0.0769 1.8081 2.2258 3.6426 -1.3852 1.6222 -0.6649 -8.1735 4.6383 -8.8050 3.8170 -1.2224 -13.4426 -6.6407 2.4569 -5.6484 -6.5642 -1.2508 4.1697 0.0000 0.0000 19.3572 -5.2907 4.7375 -6.4255 0.0000 0.0000 -0.0000 -0.0000 -0.0000 -0.0000 -6.1465 -1.3395 2.4986 -15.3072 7.6134 -11.0517 -0.0000 0.0000 3.0022 1.1116 1.7376 3.3491 0.0000 0.0000 -0.0000 0.0000 0.0000 0.0000 -16.1489 -0.6871 -3.5551 15.8589 0.0000 0.0000 -6.7643 3.1722 11.1537 4.9165 0.0000 0.0000 -10.2459 -0.0004 10.9228 5.1867 0.0000 0.0000 -3.8733 5.8037 -10.2221 -2.8945 0.0000 -0.0000
 -0.6271 -1.4029 24.9057 -6.4526 3.6424 172.5528 2.6488 -1.3013 -0.3806 0.7139 -1.0924 -0.1179 2.4845 2.3254 3.0044 -1.4792 1.9090 -0.9973 -9.5666 4.5385 -7.2802 3.6130 -1.5308 -11.9523 -6.0503 1.9542 -4.5253 -6.9478 -2.8669 3.2758 0.0000 0.0000 19.0493 -6.6833 4.6275 -5.0611 0.0000 0.0000 0.0000 -0.0000 -0.0000 0.0000 -5.5141 -0.7442 2.3287 -16.0286 9.0714 -11.4299 -0.0000 0.0000 3.1733 -0.3316 1.1476 2.0513 -0.0000 0.0000 -0.0000 -0.0000 -0.0000 -0.0000 -17.5010 -0.5880 -3.7690 17.3924 0.0000 0.0000 -7.1605 3.1197 9.9708 4.8206 0.0000 0.0000 -13.1405 -0.5548 12.4560 9.4487 0.0000 0.0000 -5.6784 6.1375 -11.1497 -2.9525 0.0000 -0.0000
 -0.5960 -1.5079 24.8621 -6.5878 3.2090 173.6975 2.8200 -1.9752 -0.3451 0.7552 -1.2517 -0.1596 3.2107 2.3467 2.6182 -1.5378 2.1679 -1.2307 -10.9700 4.7045 -5.7538 3.4146 -1.8147 -10.2894 -5.7097 1.4470 -3.3063 -8.1580 -4.2430 2.0104 0.0000 0.0000 19.6295 -8.7329 5.6810 -2.2914 0.0000 -0.0000 0.0000 -0.0000 -0.0000 -0.0000 -5.0556 -0.1315 2.0449 -16.6188 10.4960 -11.9401 -0.0000 0.0000 3.2741 -2.3239 -0.9938 -0.8251 -0.0000 0.0000 -0.0000 -0.0000 -0.0000 0.0000 -18.1088 -0.9212 -4.1110 18.0950 0.0000 0.0000 -7.2940 3.2043 9.0306 4.6685 0.0000 0.0000 -16.0296 -1.8230 13.8744 14.3660 0.0000 0.0000 -8.0853 5.4144 -8.9409 -2.6704 0.0000 -0.0000
 -0.5607 -1.5704 24.8349 -6.4920 2.7526 174.4743 3.0003 -2.4521 -0.2698 0.7871 -1.3913 -0.1844 3.8220 2.2363 2.3391 -1.5736 2.2787 -1.2970 -12.1097 4.7783 -4.3286 3.2200 -1.8672 -8.4445 -5.3816 0.4151 -2.3569 -10.5964 -4.6968 0.8689 0.0000 0.0000 22.8130 -10.3889 9.0125 1.5120 0.0000 -0.0000 0.0000 -0.0000 -0.0000 0.0000 -4.7008 0.2176 1.5694 -15.8156 11.2384 -12.3971 -0.0000 0.0000 3.0828 -3.8479 -3.7987 -4.4909 -0.0000 -0.0000 -0.0000 0.0000 -0.0000 -0.0000 -18.1709 -1.3650 -3.9746 18.3375 0.0000 0.0000 -7.3113 3.0152 7.9908 4.6560 0.0000 0.0000 -18.3536 -3.6386 15.2955 18.7146 0.0000 0.0000 -10.1675 3.1714 -5.0432 -2.2136 0.0000 -0.0000
 -0.5379 -1.5832 24.8310 -6.2556 2.7587 174.6715 3.1018 -2.3539 -0.2474 0.7972 -1.3309 -0.1785 4.1595 2.0400 2.0807 -1.6120 2.2062 -1.2195 -12.7913 4.4868 -2.9503 3.1353 -1.6759 -6.3956 -4.8417 -0.9724 -1.7590 -13.8963 -4.3687 0.6283 0.0000 0.0000 29.4406 -10.6536 13.5564 5.4099 0.0000 -0.0000 0.0000 0.0000 -0.0000 0.0000 -4.4264 0.1144 1.0538 -14.2597 10.9090 -12.4076 -0.0000 0.0000 2.6248 -4.7868 -6.2494 -6.9108 -0.0000 -0.0000 -0.0000 0.0000 0.0000 0.0000 -18.1181 -1.4150 -3.4425 18.6698 0.0000 0.0000 -7.3995 2.5989 7.2598 4.6855 0.0000 0.0000 -19.5633 -5.6696 16.7575 21.0846 0.0000 0.0000 -10.6071 0.1889 -2.1690 -2.1553 0.0000 -0.0000
 -0.5481 -1.5465 24.8403 -5.8812 3.3043 174.1277 3.1308 -1.8734 -0.2685 0.8112 -1.0923 -0.1379 4.2149 1.9543 2.0434 -1.6624 2.0418 -1.0566 -12.9857 3.9989 -1.5962 3.2171 -1.5056 -4.3333 -4.1044 -1.7356 -1.3755 -17.0251 -4.1213 1.4732 -0.0000 0.0000 38.6737 -9.7196 16.7507 8.5654 0.0000 -0.0000 0.0000 0.0000 0.0000 0.0000 -4.2946 -0.3800 0.6184 -13.7501 9.8128 -11.8098 -0.0000 0.0000 2.1605 -5.6312 -8.1631 -7.3122 -0.0000 0.0000 0.0000 -0.0000 0.0000 -0.0000 -18.0775 -0.9091 -3.0122 19.2749 0.0000 0.0000 -7.6450 2.3748 7.4586 4.5744 0.0000 0.0000 -19.3570 -7.6957 18.0690 20.9060 0.0000 0.0000 -9.2304 -2.2089 -1.3461 -2.6974 0.0000 -0.0000
 -0.5961 -1.4702 24.8499 -5.3659 3.9853 172.9280 3.1407 -1.5950 -0.2522 0.8333 -0.8295 -0.0748 4.1093 2.0866 2.5772 -1.6977 1.9665 -0.8458 -12.7992 3.6194 -0.3461 3.3322 -1.5380 -2.5815 -3.4604 -1.1345 -1.0522 -19.3578 -4.4088 2.6780 -0.0000 0.0001 49.3015 -9.3789 17.6336 11.0579 -0.0000 0.0000 0.0000 -0.0000 0.0000 0.0000 -4.3552 -1.1753 0.3187 -14.5304 8.4906 -11.2669 -0.0000 0.0000 1.8968 -6.2105 -9.9548 -6.6272 -0.0000 -0.0000 -0.0000 -0.0000 -0.0000 0.0000 -17.9676 -0.2127 -2.6082 20.0452 0.0000 0.0000 -8.0610 2.0407 8.4179 4.5320 0.0000 0.0000 -18.0704 -9.9019 18.5189 18.9324 0.0000 0.0000 -6.9662 -3.2905 -1.5407 -3.2114 0.0000 -0.0000
 -0.6681 -1.3756 24.8563 -4.8832 4.3963 171.4374 3.1298 -1.7817 -0.1686 0.8429 -0.6871 -0.0001 3.8875 2.3602 3.7016 -1.6947 1.9845 -0.5705 -12.3277 3.4862 0.6832 3.2711 -1.7105 -1.3126 -3.2437 0.6809 -0.8129 -21.1464 -5.0802 3.7824 -0.0000 0.0001 60.8206 -11.1328 17.0791 13.1848 0.0000 0.0000 -0.0000 0.0000 -0.0000 -0.0000 -4.6290 -2.3051 0.2751 -15.3009 7.3435 -11.7176 -0.0000 0.0000 2.0587 -5.9466 -11.3483 -5.6909 0.0000 -0.0000 -0.0000 0.0000 -0.0000 -0.0000 -17.8604 0.2686 -1.8805 20.8852 0.0000 0.0000 -8.5854 0.6592 9.5082 4.9520 0.0000 0.0000 -16.5225 -12.7658 17.4341 16.5443 0.0000 0.0000 -4.4265 -3.0545 -2.0017 -3.1839 0.0000 -0.0000
 -0.7532 -1.2751 24.8620 -4.4843 4.5633 170.1342 3.1845 -2.1381 -0.0596 0.8578 -0.6093 0.0685 3.4434 2.5845 5.0734 -1.6672 1.9566 -0.2469 -11.5558 3.4795 1.3847 3.0364 -1.8519 -0.5095 -3.5831 3.2078 -0.7177 -22.6456 -5.9686 5.1899 -0.0000 0.0001 72.5808 -14.0867 16.1725 14.7237 -0.0000 -0.0000 0.0000 0.0000 -0.0000 -0.0000 -5.1313 -3.9805 0.5292 -15.6944 6.6601 -13.4644 -0.0000 0.0000 2.8838 -5.1519 -11.7945 -4.5688 0.0000 0.0000 -0.0000 0.0000 0.0000 0.0000 -17.7871 0.6278 -1.0150 21.7934 0.0000 0.0000 -9.1400 -1.8830 10.4493 5.7443 0.0000 0.0000 -15.1613 -16.3635 14.9442 14.4874 0.0000 0.0000 -0.8404 -1.9562 -3.1997 -3.0579 0.0000 -0.0000
 -0.8600 -1.1675 24.8614 -4.0761 4.8142 169.3319 3.3359 -2.3073 0.0197 0.9197 -0.4104 0.1466 2.7319 2.7014 6.3923 -1.6472 1.8041 0.1042 -10.4921 3.4637 1.6666 2.9160 -1.8778 -0.1567 -4.3724 6.3242 -0.6608 -23.8611 -7.1027 7.1990 -0.0000 0.0001 83.4286 -16.0539 15.2033 15.4337 -0.0000 0.0000 0.0000 0.0000 -0.0000 0.0000 -5.7230 -6.1673 0.7232 -16.5062 6.1768 -16.0637 -0.0000 0.0000 4.0834 -4.6161 -12.1220 -3.3888 -0.0000 0.0000 -0.0000 0.0000 0.0000 0.0000 -17.8330 1.2450 -0.3291 22.9878 0.0000 0.0000 -9.8066 -4.4701 11.1027 6.4182 0.0000 0.0000 -14.1187 -20.1940 11.9243 12.8911 0.0000 0.0000 4.7293 -0.6361 -5.1669 -3.3960 0.0000 -0.0000
